<svg id="Layer_1" enable-background="new 0 0 32 32" height="512" viewBox="0 0 32 32" width="512" xmlns="http://www.w3.org/2000/svg">
  <!-- Main heart shape -->
  <path d="m23.944 13.531c-.529-1.726-1.899-3.017-3.666-3.454-1.508-.376-3.063-.044-4.278.884-1.215-.927-2.77-1.258-4.278-.884-1.767.438-3.137 1.729-3.666 3.454-1.146 3.732 1.484 7.336 7.606 10.421.106.054.223.08.338.08s.231-.026.338-.08c6.122-3.085 8.753-6.688 7.606-10.421z" fill="#4F7942"/>
  
  <!-- Top dot -->
  <path d="m16 6.534c.414 0 .75-.336.75-.75v-3.784c0-.414-.336-.75-.75-.75s-.75.336-.75.75v3.784c0 .414.336.75.75.75z" fill="#4F7942"/>
  
  <!-- Bottom dot -->
  <path d="m16 25.466c-.414 0-.75.336-.75.75v3.784c0 .414.336.75.75.75s.75-.336.75-.75v-3.784c0-.414-.336-.75-.75-.75z" fill="#4F7942"/>
  
  <!-- Right dot -->
  <path d="m30 15.25h-3.784c-.414 0-.75.336-.75.75s.336.75.75.75h3.784c.414 0 .75-.336.75-.75s-.336-.75-.75-.75z" fill="#4F7942"/>
  
  <!-- Left dot -->
  <path d="m6.534 16c0-.414-.336-.75-.75-.75h-3.784c-.414 0-.75.336-.75.75s.336.75.75.75h3.784c.414 0 .75-.336.75-.75z" fill="#4F7942"/>
  
  <!-- Top-right diagonal -->
  <path d="m23.224 9.526c.192 0 .384-.073.53-.22l2.676-2.676c.293-.293.293-.768 0-1.061s-.768-.293-1.061 0l-2.676 2.676c-.293.293-.293.768 0 1.061.147.147.338.22.531.22z" fill="#4F7942"/>
  
  <!-- Bottom-left diagonal -->
  <path d="m8.246 22.693-2.676 2.676c-.293.293-.293.768 0 1.061.146.146.338.22.53.22s.384-.073.53-.22l2.676-2.676c.293-.293.293-.768 0-1.061s-.767-.293-1.06 0z" fill="#4F7942"/>
  
  <!-- Bottom-right diagonal -->
  <path d="m23.754 22.693c-.293-.293-.768-.293-1.061 0s-.293.768 0 1.061l2.676 2.676c.146.146.338.22.53.22s.384-.073.53-.22c.293-.293.293-.768 0-1.061z" fill="#4F7942"/>
  
  <!-- Top-left diagonal -->
  <path d="m8.246 9.307c.146.146.338.22.53.22s.384-.073.53-.22c.293-.293.293-.768 0-1.061l-2.675-2.676c-.293-.293-.768-.293-1.061 0s-.293.768 0 1.061z" fill="#4F7942"/>
</svg>
