<svg width="520" height="520" viewBox="0 0 520 520" fill="none" xmlns="http://www.w3.org/2000/svg">
<g filter="url(#filter0_d_206_139)">
<rect width="512" height="512" transform="translate(4)" fill="white"/>
<path d="M260 392C266.072 392 271 396.833 271 402.787V457.213C271 463.167 266.072 468 260 468C253.928 468 249 463.167 249 457.213V402.787C249 396.833 253.928 392 260 392ZM140.224 345.052C144.294 340.983 150.877 340.983 154.947 345.052C159.017 349.12 159.017 355.716 154.947 359.785L117.776 396.945C115.748 398.986 113.081 400 110.414 400C107.747 400 105.081 398.972 103.053 396.945C98.9828 392.877 98.9829 386.281 103.053 382.212L140.224 345.052ZM365.053 345.052C369.123 340.983 375.72 340.983 379.79 345.052L416.947 382.212C421.017 386.281 421.017 392.877 416.947 396.945C414.919 398.986 412.253 400 409.586 400C406.919 400 404.252 398.973 402.224 396.945L365.053 359.785C360.983 355.716 360.983 349.12 365.053 345.052ZM259.497 172.421C277.635 158.606 300.848 153.665 323.359 159.262C349.737 165.767 370.189 184.985 378.086 210.679C395.208 266.249 355.933 319.885 264.543 365.81C262.946 366.613 261.214 367 259.497 367C257.781 367 256.034 366.613 254.452 365.81C163.063 319.885 123.802 266.234 140.909 210.679C148.806 185 169.258 165.782 195.636 159.262C218.147 153.694 241.36 158.622 259.497 172.421ZM109.497 245C115.295 245 120 249.928 120 256C120 262.072 115.295 267 109.497 267H56.5029C50.7053 267 46 262.072 46 256C46 249.928 50.7053 245 56.5029 245H109.497ZM461.497 245C467.295 245 472 249.928 472 256C472 262.072 467.295 267 461.497 267H408.503C402.705 267 398 262.072 398 256C398 249.928 402.705 245 408.503 245H461.497ZM99.0527 95.0518C103.123 90.9831 109.72 90.9831 113.79 95.0518L150.947 132.212C155.017 136.281 155.017 142.877 150.947 146.945C148.919 148.986 146.253 150 143.586 150C140.919 150 138.252 148.973 136.224 146.945L99.0527 109.785C94.9828 105.716 94.9828 99.1205 99.0527 95.0518ZM406.214 95.0518C410.283 90.983 416.879 90.983 420.948 95.0518C425.017 99.1205 425.017 105.716 420.948 109.785L383.786 146.945C381.759 148.987 379.092 150 376.426 150C373.746 150 371.093 148.986 369.052 146.945C364.983 142.877 364.983 136.281 369.052 132.212L406.214 95.0518ZM260 48C266.072 48 271 52.8326 271 58.7871V113.213C271 119.167 266.072 124 260 124C253.928 124 249 119.167 249 113.213V58.7871C249 52.8326 253.928 48 260 48Z" fill="url(#paint0_radial_206_139)"/>
</g>
<defs>
<filter id="filter0_d_206_139" x="0" y="0" width="520" height="520" filterUnits="userSpaceOnUse" color-interpolation-filters="sRGB">
<feFlood flood-opacity="0" result="BackgroundImageFix"/>
<feColorMatrix in="SourceAlpha" type="matrix" values="0 0 0 0 0 0 0 0 0 0 0 0 0 0 0 0 0 0 127 0" result="hardAlpha"/>
<feOffset dy="4"/>
<feGaussianBlur stdDeviation="2"/>
<feComposite in2="hardAlpha" operator="out"/>
<feColorMatrix type="matrix" values="0 0 0 0 0 0 0 0 0 0 0 0 0 0 0 0 0 0 0.25 0"/>
<feBlend mode="normal" in2="BackgroundImageFix" result="effect1_dropShadow_206_139"/>
<feBlend mode="normal" in="SourceGraphic" in2="effect1_dropShadow_206_139" result="shape"/>
</filter>
<radialGradient id="paint0_radial_206_139" cx="0" cy="0" r="1" gradientUnits="userSpaceOnUse" gradientTransform="translate(260 262) rotate(90) scale(256)">
<stop stop-color="#A3AF91"/>
<stop offset="0.413462" stop-color="#6F7B5E"/>
<stop offset="1" stop-color="#7F8B6F"/>
</radialGradient>
</defs>
</svg>
